<svg width="300" height="300" viewBox="0 0 300 300" fill="none" xmlns="http://www.w3.org/2000/svg">
<path d="M9 169.898C9 157.218 22.4315 146.939 39 146.939H261C277.569 146.939 291 157.218 291 169.898C291 182.578 277.569 192.857 261 192.857H39C22.4315 192.857 9 182.578 9 169.898Z" fill="#DF826C"/>
<path d="M0 240.306C0 207.338 34.9218 180.612 78 180.612H222C265.078 180.612 300 207.338 300 240.306C300 273.274 265.078 300 222 300H78C34.9218 300 0 273.274 0 240.306Z" fill="#DF826C"/>
<path d="M56 65.051H110V130.52C110 134.939 106.418 138.52 102 138.52H64C59.5817 138.52 56 134.939 56 130.52V65.051Z" fill="#DF826C"/>
<path d="M190 65.051H244V130.52C244 134.939 240.418 138.52 236 138.52H198C193.582 138.52 190 134.939 190 130.52V65.051Z" fill="#DF826C"/>
<path d="M190 45.0816C190 36.2451 197.163 29.0816 206 29.0816H228C236.837 29.0816 244 36.2451 244 45.0816V56.6327H190V45.0816Z" fill="#DF826C"/>
<path d="M56 45.0816C56 36.2451 63.1634 29.0816 72 29.0816H94C102.837 29.0816 110 36.2451 110 45.0816V56.6327H56V45.0816Z" fill="#DF826C"/>
<path d="M123 16C123 7.16344 130.163 0 139 0H161C169.837 0 177 7.16344 177 16V30.6122H123V16Z" fill="#DF826C"/>
<path d="M123 38.2653H177V130.52C177 134.939 173.418 138.52 169 138.52H131C126.582 138.52 123 134.939 123 130.52V38.2653Z" fill="#DF826C"/>
</svg>
