<svg width="300" height="392" viewBox="0 0 300 392" fill="none" xmlns="http://www.w3.org/2000/svg">
<path d="M9 222C9 205.431 22.4315 192 39 192H261C277.569 192 291 205.431 291 222V222C291 238.569 277.569 252 261 252H39C22.4315 252 9 238.569 9 222V222Z" fill="#DF826C"/>
<path d="M0 314C0 270.922 34.9218 236 78 236H222C265.078 236 300 270.922 300 314V314C300 357.078 265.078 392 222 392H78C34.9218 392 0 357.078 0 314V314Z" fill="#DF826C"/>
<path d="M56 85H110V173C110 177.418 106.418 181 102 181H64C59.5817 181 56 177.418 56 173V85Z" fill="#DF826C"/>
<path d="M190 85H244V173C244 177.418 240.418 181 236 181H198C193.582 181 190 177.418 190 173V85Z" fill="#DF826C"/>
<path d="M190 54C190 45.1634 197.163 38 206 38H228C236.837 38 244 45.1634 244 54V74H190V54Z" fill="#DF826C"/>
<path d="M56 54C56 45.1634 63.1634 38 72 38H94C102.837 38 110 45.1634 110 54V74H56V54Z" fill="#DF826C"/>
<path d="M123 16C123 7.16344 130.163 0 139 0H161C169.837 0 177 7.16344 177 16V40H123V16Z" fill="#DF826C"/>
<path d="M123 50H177V173C177 177.418 173.418 181 169 181H131C126.582 181 123 177.418 123 173V50Z" fill="#DF826C"/>
</svg>
