<svg width="467" height="93" viewBox="0 0 467 93" fill="none" xmlns="http://www.w3.org/2000/svg">
<path d="M50.4453 66C49.9759 66 49.5919 65.8507 49.2933 65.552C49.0373 65.2107 48.9519 64.8053 49.0373 64.336L57.8693 22.864C57.9546 22.3947 58.1893 22.0107 58.5733 21.712C58.9999 21.3707 59.4479 21.2 59.9173 21.2H76.2373C78.9679 21.2 81.5279 21.584 83.9173 22.352C86.3493 23.12 88.4399 24.2507 90.1893 25.744C91.9386 27.1947 93.1973 29.008 93.9653 31.184C94.7759 33.36 94.9253 35.8773 94.4133 38.736C94.1146 40.5707 93.8159 42.192 93.5173 43.6C93.2186 45.008 92.8346 46.608 92.3653 48.4C91.3413 52.4107 89.8906 55.7173 88.0133 58.32C86.1359 60.9227 83.6826 62.864 80.6533 64.144C77.6666 65.3813 73.9333 66 69.4533 66H50.4453ZM64.7812 55.12H70.2213C71.6293 55.12 72.8666 54.8853 73.9333 54.416C75.0426 53.9467 75.9599 53.2213 76.6853 52.24C77.4533 51.216 78.0293 49.9147 78.4133 48.336C78.7546 47.0987 79.0319 45.9893 79.2453 45.008C79.4586 44.0267 79.6506 43.0453 79.8213 42.064C80.0346 41.0827 80.2479 39.9947 80.4613 38.8C80.8453 36.4533 80.5253 34.7467 79.5013 33.68C78.5199 32.6133 76.9626 32.08 74.8293 32.08H69.7093L64.7812 55.12ZM92.9772 66C92.5079 66 92.1666 65.808 91.9532 65.424C91.7399 64.9973 91.7612 64.5707 92.0172 64.144L115.313 23.184C115.569 22.7147 115.953 22.2667 116.465 21.84C116.977 21.4133 117.639 21.2 118.449 21.2H130.481C131.292 21.2 131.868 21.4133 132.209 21.84C132.551 22.2667 132.743 22.7147 132.785 23.184L138.737 64.144C138.823 64.6987 138.673 65.1467 138.289 65.488C137.948 65.8293 137.543 66 137.073 66H127.473C126.748 66 126.236 65.8293 125.937 65.488C125.681 65.1467 125.511 64.8053 125.425 64.464L124.529 59.152H109.169L105.969 64.528C105.799 64.8693 105.5 65.2107 105.073 65.552C104.689 65.8507 104.135 66 103.409 66H92.9772ZM114.353 48.336H123.889L122.225 33.936L114.353 48.336ZM162.943 66.64C160.169 66.64 157.588 66.2773 155.199 65.552C152.809 64.8267 150.761 63.7387 149.055 62.288C147.348 60.8373 146.111 59.0453 145.343 56.912C144.617 54.736 144.511 52.1973 145.023 49.296C145.321 47.504 145.663 45.6693 146.047 43.792C146.473 41.872 146.9 39.9733 147.327 38.096C148.735 32.464 151.295 28.1333 155.007 25.104C158.761 22.0747 163.924 20.56 170.495 20.56C173.268 20.56 175.849 20.944 178.239 21.712C180.628 22.48 182.655 23.6107 184.319 25.104C186.025 26.5547 187.263 28.3893 188.031 30.608C188.799 32.784 188.927 35.28 188.415 38.096C188.116 39.9733 187.753 41.872 187.327 43.792C186.943 45.6693 186.516 47.504 186.047 49.296C184.596 55.056 182.015 59.3867 178.303 62.288C174.591 65.1893 169.471 66.64 162.943 66.64ZM164.095 55.76C165.929 55.76 167.529 55.2267 168.895 54.16C170.303 53.0507 171.284 51.3013 171.839 48.912C172.308 47.0773 172.735 45.3067 173.119 43.6C173.503 41.8507 173.844 40.08 174.143 38.288C174.569 35.8987 174.335 34.1707 173.439 33.104C172.585 31.9947 171.241 31.44 169.407 31.44C167.572 31.44 165.972 31.9947 164.607 33.104C163.241 34.1707 162.239 35.8987 161.599 38.288C161.172 40.08 160.767 41.8507 160.383 43.6C160.041 45.3067 159.7 47.0773 159.359 48.912C158.932 51.3013 159.145 53.0507 159.999 54.16C160.852 55.2267 162.217 55.76 164.095 55.76ZM209.507 66.64C206.605 66.64 203.939 66.2987 201.507 65.616C199.075 64.8907 197.005 63.824 195.299 62.416C193.635 60.9653 192.461 59.152 191.779 56.976C191.096 54.8 190.989 52.24 191.459 49.296C191.757 47.5467 192.12 45.6693 192.547 43.664C193.016 41.6587 193.464 39.7387 193.891 37.904C194.915 34.064 196.451 30.864 198.499 28.304C200.547 25.7013 203.107 23.76 206.179 22.48C209.293 21.2 212.92 20.56 217.059 20.56C219.704 20.56 222.243 20.9013 224.675 21.584C227.107 22.224 229.219 23.2053 231.011 24.528C232.845 25.8507 234.189 27.5147 235.043 29.52C235.896 31.4827 236.067 33.808 235.555 36.496C235.469 36.88 235.256 37.2 234.915 37.456C234.616 37.712 234.275 37.84 233.891 37.84H223.011C222.413 37.84 221.965 37.712 221.667 37.456C221.411 37.2 221.24 36.752 221.155 36.112C221.112 34.32 220.6 33.104 219.619 32.464C218.68 31.7813 217.443 31.44 215.907 31.44C214.029 31.44 212.408 31.952 211.043 32.976C209.72 33.9573 208.76 35.7067 208.163 38.224C207.267 41.7227 206.499 45.3067 205.859 48.976C205.389 51.4933 205.581 53.264 206.435 54.288C207.331 55.2693 208.717 55.76 210.595 55.76C212.131 55.76 213.517 55.4187 214.755 54.736C216.035 54.0533 217.101 52.8373 217.955 51.088C218.296 50.4053 218.637 49.9573 218.979 49.744C219.363 49.488 219.875 49.36 220.515 49.36H231.395C231.779 49.36 232.077 49.488 232.291 49.744C232.547 50 232.632 50.32 232.547 50.704C231.864 53.3493 230.84 55.6747 229.475 57.68C228.152 59.6427 226.488 61.3067 224.483 62.672C222.477 63.9947 220.216 64.9973 217.699 65.68C215.181 66.32 212.451 66.64 209.507 66.64ZM236.695 66C236.226 66 235.842 65.8507 235.543 65.552C235.287 65.2533 235.202 64.848 235.287 64.336L244.119 22.864C244.205 22.3947 244.439 22.0107 244.823 21.712C245.25 21.3707 245.698 21.2 246.167 21.2H256.535C257.005 21.2 257.367 21.3707 257.623 21.712C257.879 22.0107 257.965 22.3947 257.879 22.864L254.807 37.328H267.863L270.935 22.864C271.021 22.3947 271.255 22.0107 271.639 21.712C272.066 21.3707 272.493 21.2 272.919 21.2H283.351C283.821 21.2 284.183 21.3707 284.439 21.712C284.695 22.0107 284.781 22.3947 284.695 22.864L275.863 64.336C275.778 64.8053 275.543 65.2107 275.159 65.552C274.775 65.8507 274.349 66 273.879 66H263.447C263.021 66 262.658 65.8507 262.359 65.552C262.103 65.2107 262.018 64.8053 262.103 64.336L265.303 49.488H252.247L249.047 64.336C248.962 64.8053 248.727 65.2107 248.343 65.552C247.959 65.8507 247.533 66 247.063 66H236.695ZM281.227 66C280.758 66 280.417 65.808 280.203 65.424C279.99 64.9973 280.011 64.5707 280.267 64.144L303.563 23.184C303.819 22.7147 304.203 22.2667 304.715 21.84C305.227 21.4133 305.889 21.2 306.699 21.2H318.731C319.542 21.2 320.118 21.4133 320.459 21.84C320.801 22.2667 320.993 22.7147 321.035 23.184L326.987 64.144C327.073 64.6987 326.923 65.1467 326.539 65.488C326.198 65.8293 325.793 66 325.323 66H315.723C314.998 66 314.486 65.8293 314.187 65.488C313.931 65.1467 313.761 64.8053 313.675 64.464L312.779 59.152H297.419L294.219 64.528C294.049 64.8693 293.75 65.2107 293.323 65.552C292.939 65.8507 292.385 66 291.659 66H281.227ZM302.603 48.336H312.139L310.475 33.936L302.603 48.336ZM332.633 66C332.163 66 331.779 65.8507 331.481 65.552C331.225 65.2107 331.139 64.8053 331.225 64.336L340.057 22.864C340.142 22.3947 340.377 22.0107 340.761 21.712C341.187 21.3707 341.614 21.2 342.041 21.2H350.553C351.321 21.2 351.833 21.3707 352.089 21.712C352.387 22.0533 352.558 22.3307 352.601 22.544L361.433 43.792L365.849 22.864C365.934 22.3947 366.169 22.0107 366.553 21.712C366.937 21.3707 367.363 21.2 367.833 21.2H377.497C377.966 21.2 378.329 21.3707 378.585 21.712C378.841 22.0107 378.926 22.3947 378.841 22.864L370.009 64.336C369.923 64.8053 369.689 65.2107 369.305 65.552C368.921 65.8507 368.494 66 368.025 66H359.577C358.766 66 358.211 65.8293 357.913 65.488C357.657 65.104 357.486 64.8267 357.401 64.656L348.441 44.56L344.217 64.336C344.131 64.8053 343.897 65.2107 343.513 65.552C343.129 65.8507 342.702 66 342.233 66H332.633ZM389.05 66C388.623 66 388.26 65.8507 387.962 65.552C387.706 65.2107 387.62 64.8053 387.706 64.336L394.426 33.104H383.418C382.948 33.104 382.564 32.9547 382.266 32.656C382.01 32.3147 381.924 31.9093 382.01 31.44L383.866 22.864C383.951 22.3947 384.186 22.0107 384.57 21.712C384.996 21.3707 385.423 21.2 385.85 21.2H421.818C422.287 21.2 422.65 21.3707 422.906 21.712C423.204 22.0107 423.311 22.3947 423.226 22.864L421.37 31.44C421.284 31.9093 421.05 32.3147 420.666 32.656C420.282 32.9547 419.855 33.104 419.386 33.104H408.378L401.658 64.336C401.572 64.8053 401.338 65.2107 400.954 65.552C400.57 65.8507 400.143 66 399.674 66H389.05Z" fill="#5F939A"/>
<path d="M49.4453 60C48.9759 60 48.5919 59.8507 48.2933 59.552C48.0373 59.2107 47.9519 58.8053 48.0373 58.336L56.8693 16.864C56.9546 16.3947 57.1893 16.0107 57.5733 15.712C57.9999 15.3707 58.4479 15.2 58.9173 15.2H75.2373C77.9679 15.2 80.5279 15.584 82.9173 16.352C85.3493 17.12 87.4399 18.2507 89.1893 19.744C90.9386 21.1947 92.1973 23.008 92.9653 25.184C93.7759 27.36 93.9253 29.8773 93.4133 32.736C93.1146 34.5707 92.8159 36.192 92.5173 37.6C92.2186 39.008 91.8346 40.608 91.3653 42.4C90.3413 46.4107 88.8906 49.7173 87.0133 52.32C85.1359 54.9227 82.6826 56.864 79.6533 58.144C76.6666 59.3813 72.9333 60 68.4533 60H49.4453ZM63.7812 49.12H69.2213C70.6293 49.12 71.8666 48.8853 72.9333 48.416C74.0426 47.9467 74.9599 47.2213 75.6853 46.24C76.4533 45.216 77.0293 43.9147 77.4133 42.336C77.7546 41.0987 78.0319 39.9893 78.2453 39.008C78.4586 38.0267 78.6506 37.0453 78.8213 36.064C79.0346 35.0827 79.2479 33.9947 79.4613 32.8C79.8453 30.4533 79.5253 28.7467 78.5013 27.68C77.5199 26.6133 75.9626 26.08 73.8293 26.08H68.7093L63.7812 49.12ZM91.9772 60C91.5079 60 91.1666 59.808 90.9532 59.424C90.7399 58.9973 90.7612 58.5707 91.0172 58.144L114.313 17.184C114.569 16.7147 114.953 16.2667 115.465 15.84C115.977 15.4133 116.639 15.2 117.449 15.2H129.481C130.292 15.2 130.868 15.4133 131.209 15.84C131.551 16.2667 131.743 16.7147 131.785 17.184L137.737 58.144C137.823 58.6987 137.673 59.1467 137.289 59.488C136.948 59.8293 136.543 60 136.073 60H126.473C125.748 60 125.236 59.8293 124.937 59.488C124.681 59.1467 124.511 58.8053 124.425 58.464L123.529 53.152H108.169L104.969 58.528C104.799 58.8693 104.5 59.2107 104.073 59.552C103.689 59.8507 103.135 60 102.409 60H91.9772ZM113.353 42.336H122.889L121.225 27.936L113.353 42.336ZM161.943 60.64C159.169 60.64 156.588 60.2773 154.199 59.552C151.809 58.8267 149.761 57.7387 148.055 56.288C146.348 54.8373 145.111 53.0453 144.343 50.912C143.617 48.736 143.511 46.1973 144.023 43.296C144.321 41.504 144.663 39.6693 145.047 37.792C145.473 35.872 145.9 33.9733 146.327 32.096C147.735 26.464 150.295 22.1333 154.007 19.104C157.761 16.0747 162.924 14.56 169.495 14.56C172.268 14.56 174.849 14.944 177.239 15.712C179.628 16.48 181.655 17.6107 183.319 19.104C185.025 20.5547 186.263 22.3893 187.031 24.608C187.799 26.784 187.927 29.28 187.415 32.096C187.116 33.9733 186.753 35.872 186.327 37.792C185.943 39.6693 185.516 41.504 185.047 43.296C183.596 49.056 181.015 53.3867 177.303 56.288C173.591 59.1893 168.471 60.64 161.943 60.64ZM163.095 49.76C164.929 49.76 166.529 49.2267 167.895 48.16C169.303 47.0507 170.284 45.3013 170.839 42.912C171.308 41.0773 171.735 39.3067 172.119 37.6C172.503 35.8507 172.844 34.08 173.143 32.288C173.569 29.8987 173.335 28.1707 172.439 27.104C171.585 25.9947 170.241 25.44 168.407 25.44C166.572 25.44 164.972 25.9947 163.607 27.104C162.241 28.1707 161.239 29.8987 160.599 32.288C160.172 34.08 159.767 35.8507 159.383 37.6C159.041 39.3067 158.7 41.0773 158.359 42.912C157.932 45.3013 158.145 47.0507 158.999 48.16C159.852 49.2267 161.217 49.76 163.095 49.76ZM208.507 60.64C205.605 60.64 202.939 60.2987 200.507 59.616C198.075 58.8907 196.005 57.824 194.299 56.416C192.635 54.9653 191.461 53.152 190.779 50.976C190.096 48.8 189.989 46.24 190.459 43.296C190.757 41.5467 191.12 39.6693 191.547 37.664C192.016 35.6587 192.464 33.7387 192.891 31.904C193.915 28.064 195.451 24.864 197.499 22.304C199.547 19.7013 202.107 17.76 205.179 16.48C208.293 15.2 211.92 14.56 216.059 14.56C218.704 14.56 221.243 14.9013 223.675 15.584C226.107 16.224 228.219 17.2053 230.011 18.528C231.845 19.8507 233.189 21.5147 234.043 23.52C234.896 25.4827 235.067 27.808 234.555 30.496C234.469 30.88 234.256 31.2 233.915 31.456C233.616 31.712 233.275 31.84 232.891 31.84H222.011C221.413 31.84 220.965 31.712 220.667 31.456C220.411 31.2 220.24 30.752 220.155 30.112C220.112 28.32 219.6 27.104 218.619 26.464C217.68 25.7813 216.443 25.44 214.907 25.44C213.029 25.44 211.408 25.952 210.043 26.976C208.72 27.9573 207.76 29.7067 207.163 32.224C206.267 35.7227 205.499 39.3067 204.859 42.976C204.389 45.4933 204.581 47.264 205.435 48.288C206.331 49.2693 207.717 49.76 209.595 49.76C211.131 49.76 212.517 49.4187 213.755 48.736C215.035 48.0533 216.101 46.8373 216.955 45.088C217.296 44.4053 217.637 43.9573 217.979 43.744C218.363 43.488 218.875 43.36 219.515 43.36H230.395C230.779 43.36 231.077 43.488 231.291 43.744C231.547 44 231.632 44.32 231.547 44.704C230.864 47.3493 229.84 49.6747 228.475 51.68C227.152 53.6427 225.488 55.3067 223.483 56.672C221.477 57.9947 219.216 58.9973 216.699 59.68C214.181 60.32 211.451 60.64 208.507 60.64ZM235.695 60C235.226 60 234.842 59.8507 234.543 59.552C234.287 59.2533 234.202 58.848 234.287 58.336L243.119 16.864C243.205 16.3947 243.439 16.0107 243.823 15.712C244.25 15.3707 244.698 15.2 245.167 15.2H255.535C256.005 15.2 256.367 15.3707 256.623 15.712C256.879 16.0107 256.965 16.3947 256.879 16.864L253.807 31.328H266.863L269.935 16.864C270.021 16.3947 270.255 16.0107 270.639 15.712C271.066 15.3707 271.493 15.2 271.919 15.2H282.351C282.821 15.2 283.183 15.3707 283.439 15.712C283.695 16.0107 283.781 16.3947 283.695 16.864L274.863 58.336C274.778 58.8053 274.543 59.2107 274.159 59.552C273.775 59.8507 273.349 60 272.879 60H262.447C262.021 60 261.658 59.8507 261.359 59.552C261.103 59.2107 261.018 58.8053 261.103 58.336L264.303 43.488H251.247L248.047 58.336C247.962 58.8053 247.727 59.2107 247.343 59.552C246.959 59.8507 246.533 60 246.063 60H235.695ZM280.227 60C279.758 60 279.417 59.808 279.203 59.424C278.99 58.9973 279.011 58.5707 279.267 58.144L302.563 17.184C302.819 16.7147 303.203 16.2667 303.715 15.84C304.227 15.4133 304.889 15.2 305.699 15.2H317.731C318.542 15.2 319.118 15.4133 319.459 15.84C319.801 16.2667 319.993 16.7147 320.035 17.184L325.987 58.144C326.073 58.6987 325.923 59.1467 325.539 59.488C325.198 59.8293 324.793 60 324.323 60H314.723C313.998 60 313.486 59.8293 313.187 59.488C312.931 59.1467 312.761 58.8053 312.675 58.464L311.779 53.152H296.419L293.219 58.528C293.049 58.8693 292.75 59.2107 292.323 59.552C291.939 59.8507 291.385 60 290.659 60H280.227ZM301.603 42.336H311.139L309.475 27.936L301.603 42.336ZM331.633 60C331.163 60 330.779 59.8507 330.481 59.552C330.225 59.2107 330.139 58.8053 330.225 58.336L339.057 16.864C339.142 16.3947 339.377 16.0107 339.761 15.712C340.187 15.3707 340.614 15.2 341.041 15.2H349.553C350.321 15.2 350.833 15.3707 351.089 15.712C351.387 16.0533 351.558 16.3307 351.601 16.544L360.433 37.792L364.849 16.864C364.934 16.3947 365.169 16.0107 365.553 15.712C365.937 15.3707 366.363 15.2 366.833 15.2H376.497C376.966 15.2 377.329 15.3707 377.585 15.712C377.841 16.0107 377.926 16.3947 377.841 16.864L369.009 58.336C368.923 58.8053 368.689 59.2107 368.305 59.552C367.921 59.8507 367.494 60 367.025 60H358.577C357.766 60 357.211 59.8293 356.913 59.488C356.657 59.104 356.486 58.8267 356.401 58.656L347.441 38.56L343.217 58.336C343.131 58.8053 342.897 59.2107 342.513 59.552C342.129 59.8507 341.702 60 341.233 60H331.633ZM388.05 60C387.623 60 387.26 59.8507 386.962 59.552C386.706 59.2107 386.62 58.8053 386.706 58.336L393.426 27.104H382.418C381.948 27.104 381.564 26.9547 381.266 26.656C381.01 26.3147 380.924 25.9093 381.01 25.44L382.866 16.864C382.951 16.3947 383.186 16.0107 383.57 15.712C383.996 15.3707 384.423 15.2 384.85 15.2H420.818C421.287 15.2 421.65 15.3707 421.906 15.712C422.204 16.0107 422.311 16.3947 422.226 16.864L420.37 25.44C420.284 25.9093 420.05 26.3147 419.666 26.656C419.282 26.9547 418.855 27.104 418.386 27.104H407.378L400.658 58.336C400.572 58.8053 400.338 59.2107 399.954 59.552C399.57 59.8507 399.143 60 398.674 60H388.05Z" fill="#FEFEFE"/>
</svg>
